<?xml version="1.0" encoding="UTF-8"?>
<svg id="Layer_2" data-name="Layer 2" xmlns="http://www.w3.org/2000/svg" viewBox="0 0 230 230">
  <defs>
    <style>
      .cls-1 {
        fill: #fff;
      }

      .cls-2 {
        fill: #f2003c;
      }
    </style>
  </defs>
  <g id="Home">
    <rect class="cls-2" width="230" height="230" rx="35.7" ry="35.7"/>
    <g>
      <path class="cls-1" d="M93.51,64.68l-41.88-24.18v23.55l42.53,24.57v66.33l-22.13-12.78v-24.57l-20.4-11.77v48.12l61.58,35.54v-113.56l-19.67-11.26h-.02ZM106.23,175.84l-46.25-26.7v-21.3l-2.3-1.32v-10.59l8.09,4.65v10.59l-2.07-1.2v16.99l38.81,22.44v-85.6l-36.74-21.22v3.15l-8.09-4.67v-10.59l8.09,4.65v3.17l23.57,13.6,16.89,9.67v94.27Z"/>
      <path class="cls-1" d="M178.37,88.62v-48.12l-41.88,24.37-19.69,11.1v113.54l61.58-35.54v-48.12l-20.4,11.79v24.57l-22.13,12.78v-66.35l22.13-12.78v24.57l20.4-11.79ZM127.51,83.81v85.62l38.81-22.44v-16.05l-2.28,1.32v-10.61l8.09-4.65v10.59l-2.09,1.2v20.36l-46.25,26.7v-94.23l16.91-9.57,29.34-17.05v21.24l2.09-1.2v10.59l-8.09,4.67v-10.59l2.28-1.32v-17.01l-38.81,22.42v.02Z"/>
    </g>
  </g>
</svg>